# xmcd
#
# Track frame offsets: 
#        150
#        17437
#        33472
#        49054
#        64049
#        82098
#        98971
#        116434
#        132763
#        150200
#
# Disc length: 2197 seconds
#
# Revision: 0
# Processed by: cddbd v1.5.1PL2 Copyright (c) Steve Scherf et al.
# Submitted via: ExactAudioCopy v0.95b3
#
DISCID=7208930a
DTITLE=Siriporn Umpaipong - Loog thung Baan don Vol 6
DYEAR=2003
DGENRE=Country
TTITLE0=Pae jai khon dee
TTITLE1=Serapin dok ya
TTITLE2=Tob mae bor dai
TTITLE3=A tun puen jao sao
TTITLE4=Sao na sun ya mae
TTITLE5=Nong rub bor dai
TTITLE6=Poo bao luem bann
TTITLE7=Dok jann tam jai
TTITLE8=Mae pim bann prai
TTITLE9=Tid tor hai doey
EXTD=
EXTT0=
EXTT1=
EXTT2=
EXTT3=
EXTT4=
EXTT5=
EXTT6=
EXTT7=
EXTT8=
EXTT9=
PLAYORDER=
